<svg width="160" height="160" viewBox="0 0 160 160" fill="none" xmlns="http://www.w3.org/2000/svg">
  <rect width="160" height="160" rx="36" fill="#111827"/>
  <rect x="20" y="20" width="120" height="120" rx="28" fill="#1F2937"/>
  <path d="M48 58V48C48 43.5817 51.5817 40 56 40H66" stroke="#F9FAFB" stroke-width="8" stroke-linecap="round"/>
  <path d="M94 40H104C108.418 40 112 43.5817 112 48V58" stroke="#F9FAFB" stroke-width="8" stroke-linecap="round"/>
  <path d="M112 102V112C112 116.418 108.418 120 104 120H94" stroke="#F9FAFB" stroke-width="8" stroke-linecap="round"/>
  <path d="M66 120H56C51.5817 120 48 116.418 48 112V102" stroke="#F9FAFB" stroke-width="8" stroke-linecap="round"/>
  <rect x="46" y="64" width="68" height="48" rx="10" fill="#2563EB"/>
  <path d="M61 64L67 52H93L99 64" stroke="#93C5FD" stroke-width="8" stroke-linejoin="round"/>
  <circle cx="80" cy="88" r="16" fill="#BFDBFE"/>
  <circle cx="80" cy="88" r="8" fill="#1D4ED8"/>
</svg>
